<?xml version="1.0" encoding="UTF-8" standalone="no"?>
<!DOCTYPE svg PUBLIC "-//W3C//DTD SVG 1.1//EN" "http://www.w3.org/Graphics/SVG/1.1/DTD/svg11.dtd">
<!-- Created with Vectornator (http://vectornator.io/) -->
<svg height="960.0pt" stroke-miterlimit="10" style="fill-rule:nonzero;clip-rule:evenodd;stroke-linecap:round;stroke-linejoin:round;" version="1.1" viewBox="0 0 960 960" width="960.0pt" xml:space="preserve" xmlns="http://www.w3.org/2000/svg" xmlns:xlink="http://www.w3.org/1999/xlink">
<defs/>
<g id="Без-названия">
<path d="M910.126 236.77C910.126 192.107 873.94 155.9 829.303 155.9L130.709 155.9C116.277 155.9 102.107 159.767 89.6734 167.099C51.218 189.776 38.4163 239.352 61.08 277.831L410.043 870.298C416.985 882.085 426.803 891.917 438.578 898.874C477.014 921.583 526.573 908.815 549.267 870.356L898.899 277.888C906.248 265.433 910.126 251.234 910.126 236.77ZM832.225 236.77C832.225 237.292 832.085 237.806 831.819 238.256L482.189 830.724C481.366 832.113 479.576 832.576 478.186 831.753C477.761 831.502 477.407 831.148 477.156 830.721L128.192 238.254C127.374 236.864 127.836 235.072 129.227 234.251C129.676 233.987 130.188 233.847 130.709 233.847L829.303 233.847C830.916 233.847 832.225 235.155 832.225 236.77Z" fill="#000000" fill-rule="nonzero" opacity="1" stroke="none"/>
</g>
</svg>
