<svg height="960" viewBox="0 0 960 960" width="960" xmlns="http://www.w3.org/2000/svg">
    <path d="M286.65 49.8744C241.987 49.8744 205.78 86.06 205.78 130.697L205.78 829.291C205.78 843.723 209.647 857.893 216.979 870.327C239.656 908.782 289.232 921.584 327.711 898.92L920.178 549.957C931.965 543.015 941.797 533.197 948.754 521.422C971.463 482.986 958.695 433.427 920.236 410.733L327.768 61.1007C315.313 53.7515 301.114 49.8744 286.65 49.8744ZM286.65 127.775C287.172 127.775 287.686 127.915 288.136 128.181L880.604 477.811C881.993 478.634 882.456 480.424 881.633 481.814C881.382 482.239 881.028 482.593 880.601 482.844L288.134 831.808C286.744 832.626 284.952 832.164 284.131 830.773C283.867 830.324 283.727 829.812 283.727 829.291L283.727 130.697C283.727 129.084 285.035 127.775 286.65 127.775Z"/>
</svg>