<?xml version="1.0" encoding="UTF-8" standalone="no"?>
<!DOCTYPE svg PUBLIC "-//W3C//DTD SVG 1.1//EN" "http://www.w3.org/Graphics/SVG/1.1/DTD/svg11.dtd">
<!-- Created with Vectornator (http://vectornator.io/) -->
<svg height="960.0pt" stroke-miterlimit="10" style="fill-rule:nonzero;clip-rule:evenodd;stroke-linecap:round;stroke-linejoin:round;" version="1.1" viewBox="0 0 960 960" width="960.0pt" xml:space="preserve" xmlns="http://www.w3.org/2000/svg" xmlns:xlink="http://www.w3.org/1999/xlink">
<defs/>
<g id="Без-названия">
<path d="M936.457 344.501C936.457 207.281 824.93 95.62 687.802 95.62C602.007 95.62 524.904 138.596 479.81 207.377C434.164 138.539 356.091 95.62 272.255 95.62C135.127 95.62 23.5427 207.281 23.5427 344.501C23.5427 368.461 26.871 392.002 33.4326 414.498C54.5818 529.811 196.046 662.847 332.869 791.509C380.435 836.215 425.377 878.45 463.606 918.421C473.211 928.437 487.93 931.634 500.826 926.503C508.11 923.594 513.987 918.326 517.677 911.823C573.022 844.506 637.173 782.21 699.309 721.853C814.945 609.583 915.023 512.374 927.119 412.54C933.338 390.633 936.457 367.833 936.457 344.501ZM861.047 396.072C860.419 398.126 860.058 400.255 859.792 402.347C852.032 478.696 754.806 573.111 651.951 672.982C595.978 727.368 538.312 783.313 485.934 843.936C453.202 811.152 417.142 777.304 379.484 741.877C256.051 625.785 116.07 494.213 100.094 400.883C99.8778 399.524 99.56 398.183 99.1434 396.871C94.0671 379.878 91.5041 362.235 91.5358 344.501C91.5358 244.762 172.614 163.621 272.255 163.621C342.15 163.621 406.472 204.695 436.199 268.266C436.941 269.901 437.835 271.479 438.843 272.963C443.978 280.512 447.763 287.415 450.825 294.755C456.377 307.944 469.587 316.252 483.882 315.546C498.177 314.84 510.504 305.271 514.729 291.598C537.766 215.398 608.128 163.376 687.745 163.678C787.348 163.678 868.388 244.819 868.388 344.539C868.479 361.983 866.006 379.346 861.047 396.072Z" fill="#000000" fill-rule="nonzero" opacity="1" stroke="none"/>
</g>
</svg>
