<?xml version="1.0" encoding="UTF-8" standalone="no"?>
<!DOCTYPE svg PUBLIC "-//W3C//DTD SVG 1.1//EN" "http://www.w3.org/Graphics/SVG/1.1/DTD/svg11.dtd">
<!-- Created with Vectornator (http://vectornator.io/) -->
<svg height="960.0pt" stroke-miterlimit="10" style="fill-rule:nonzero;clip-rule:evenodd;stroke-linecap:round;stroke-linejoin:round;" version="1.1" viewBox="0 0 960 960" width="960.0pt" xml:space="preserve" xmlns="http://www.w3.org/2000/svg" xmlns:xlink="http://www.w3.org/1999/xlink">
<defs/>
<g id="Без-названия">
<path d="M49.88 723.229C49.88 767.892 86.0655 804.099 130.702 804.099L829.295 804.099C843.727 804.099 857.897 800.232 870.331 792.9C908.786 770.223 921.588 720.647 898.924 682.168L549.962 89.7023C543.02 77.915 533.202 68.0831 521.427 61.1261C482.991 38.4174 433.432 51.1852 410.738 89.6443L61.1063 682.111C53.7571 694.566 49.88 708.765 49.88 723.229ZM127.78 723.229C127.78 722.707 127.92 722.193 128.186 721.743L477.816 129.276C478.639 127.886 480.429 127.424 481.819 128.247C482.244 128.498 482.598 128.852 482.849 129.279L831.812 721.745C832.63 723.135 832.168 724.927 830.777 725.748C830.328 726.012 829.816 726.152 829.295 726.152L130.702 726.152C129.089 726.152 127.78 724.844 127.78 723.229Z" fill="#000000" fill-rule="nonzero" opacity="1" stroke="none"/>
</g>
</svg>
