<svg height="960" viewBox="0 0 960 960" width="960" xmlns="http://www.w3.org/2000/svg">
    <path d="M607.424 170L607.424 223.888C607.424 230.944 611.856 237.136 618.08 240.672C729.2 298.96 799.424 422.64 778.08 559.552C756.752 692.928 645.632 797.152 511.424 813.072C326.528 834.272 169.184 690.288 169.184 510.08C169.184 393.488 235.856 291.904 332.752 240.672C338.976 237.136 343.424 230.944 343.424 223.872L343.424 170C343.424 155.872 328.304 146.16 315.856 152.336C167.424 217.696 67.856 368.752 81.2 541.888C95.424 727.376 243.856 880.208 429.632 900.512C667.872 927.024 869.632 741.52 869.632 510.96C869.632 351.088 773.632 213.28 634.976 152.336C622.528 147.04 607.424 155.856 607.424 170Z"/><path d="M474.976 387.296C498.976 387.296 519.424 367.872 519.424 343.136L519.424 108.16C519.424 84.32 499.856 64 474.976 64C450.08 64 430.528 83.44 430.528 108.16L430.528 343.136C430.528 367.872 450.976 387.296 474.976 387.296Z"/>
</svg>