<svg height="960" viewBox="0 0 960 960" width="960" xmlns="http://www.w3.org/2000/svg">
    <path d="M673.35 910.126C718.013 910.126 754.22 873.94 754.22 829.303L754.22 130.709C754.22 116.277 750.353 102.107 743.021 89.6734C720.344 51.218 670.768 38.4163 632.289 61.08L39.8224 410.043C28.035 416.985 18.2031 426.803 11.2461 438.578C-11.4626 477.014 1.30517 526.573 39.7644 549.267L632.232 898.899C644.687 906.248 658.886 910.126 673.35 910.126ZM673.35 832.225C672.828 832.225 672.314 832.085 671.864 831.819L79.396 482.189C78.0066 481.366 77.5444 479.576 78.3667 478.186C78.6177 477.761 78.9718 477.407 79.399 477.156L671.866 128.192C673.256 127.374 675.048 127.836 675.869 129.227C676.133 129.676 676.273 130.188 676.273 130.709L676.273 829.303C676.273 830.916 674.965 832.225 673.35 832.225Z"/>
</svg>